# xmcd
#
# Track frame offsets:
#	150
#	13106
#	25663
#	42313
#	56467
#	67425
#	82757
#	94546
#	110661
#	122549
#
# Disc length: 1729 seconds
#
# Revision: 0
# Processed by: cddbd v1.5.2PL0 Copyright (c) Steve Scherf et al.
# Submitted via: FairStars CD Ripper 2.00
#
DISCID=7a06bf0a
DTITLE=Faron Young Seputies - Faron Young's Seputies
DYEAR=1971
DGENRE=country
TTITLE0=Pride
TTITLE1=The Grand Tour
TTITLE2=Angels don't Lie
TTITLE3=Is That All There is to a Honky Tonk
TTITLE4=Somebody'd Knocking
TTITLE5=Color Daddy
TTITLE6=Ramblin' Fever
TTITLE7=From cotton to Satin
TTITLE8=The Hurtin' Song
TTITLE9=Orange Blossom Special
EXTD=
EXTT0=
EXTT1=
EXTT2=
EXTT3=
EXTT4=
EXTT5=
EXTT6=
EXTT7=
EXTT8=
EXTT9=
PLAYORDER=
